<?xml version="1.0" standalone="no"?>
<!DOCTYPE svg PUBLIC "-//W3C//DTD SVG 20010904//EN"
 "http://www.w3.org/TR/2001/REC-SVG-20010904/DTD/svg10.dtd">
<svg version="1.0" xmlns="http://www.w3.org/2000/svg"
 width="450.000000pt" height="450.000000pt" viewBox="0 0 450.000000 450.000000"
 preserveAspectRatio="xMidYMid meet">

<g transform="translate(0.000000,450.000000) scale(0.100000,-0.100000)"
fill="#000000" stroke="none">
<path d="M2095 3330 c-452 -71 -813 -411 -906 -855 -24 -115 -26 -317 -4 -431
44 -228 146 -415 315 -578 146 -140 288 -220 488 -273 83 -22 119 -26 252 -27
93 0 179 4 215 12 232 51 418 154 577 320 201 211 300 457 300 748 -1 314
-110 574 -330 786 -149 143 -293 224 -490 274 -109 28 -313 40 -417 24z m335
-125 c80 -21 183 -72 235 -118 l40 -35 -28 -13 c-25 -11 -30 -10 -60 18 -44
43 -150 99 -222 118 -85 22 -253 20 -347 -4 -144 -37 -286 -117 -382 -215 -52
-54 -128 -164 -141 -205 -11 -37 -7 -122 10 -207 84 -404 505 -766 1008 -865
116 -23 348 -26 445 -5 36 7 62 9 62 3 0 -15 -90 -117 -160 -182 -58 -54 -151
-125 -163 -125 -3 0 -8 11 -11 25 -7 26 -42 65 -82 92 l-25 16 59 33 c69 39
90 60 75 75 -31 31 -231 41 -254 13 -20 -24 6 -34 76 -30 33 2 69 1 80 -3 16
-6 8 -14 -45 -42 -36 -19 -65 -39 -65 -46 0 -6 22 -26 50 -45 59 -39 85 -79
69 -105 -17 -28 -32 -26 -36 4 -3 26 -6 28 -54 31 -43 2 -56 -1 -83 -23 -35
-30 -41 -68 -14 -84 26 -14 16 -19 -67 -32 -377 -59 -819 177 -1015 542 -24
46 -45 89 -45 95 0 7 12 15 26 18 14 4 47 27 74 52 l48 45 35 -30 c38 -34 64
-39 73 -16 7 16 -20 44 -66 72 -25 14 -25 16 -16 89 10 78 14 82 62 64 31 -12
64 -4 64 15 0 13 -44 30 -99 37 -29 4 -38 29 -49 140 -6 66 -9 73 -30 76 -13
2 -24 -3 -28 -11 -3 -9 2 -83 10 -165 9 -83 13 -163 10 -179 -5 -26 -9 -28
-43 -25 -21 2 -55 -3 -76 -12 -21 -9 -40 -15 -41 -13 -2 2 -9 39 -15 83 -26
185 26 380 151 564 22 32 40 61 40 64 0 19 82 138 133 193 206 219 555 329
827 258z m334 -235 l38 -50 64 6 c35 4 64 4 64 0 0 -4 -15 -30 -34 -58 l-35
-51 20 -50 c11 -28 23 -55 25 -59 8 -12 -26 -9 -77 6 l-46 14 -48 -39 c-56
-46 -65 -41 -65 38 l0 51 -57 36 -58 35 30 11 c17 7 46 18 65 25 32 11 36 17
49 73 8 34 17 62 21 62 3 0 23 -23 44 -50z m-779 -4 c40 -26 32 -57 -39 -144
-95 -117 -121 -173 -97 -211 19 -29 52 -2 169 137 45 54 101 85 182 103 63 13
117 -5 147 -50 32 -47 18 -65 -83 -112 -65 -31 -90 -49 -112 -81 l-28 -41 44
-41 c60 -55 86 -108 79 -164 -7 -59 -44 -97 -104 -106 -24 -3 -108 -31 -185
-62 -164 -65 -147 -69 -232 61 -81 123 -136 258 -136 333 0 60 85 225 154 299
91 99 171 125 241 79z m513 -448 c17 -17 15 -89 -4 -116 -19 -27 -60 -29 -74
-3 -5 11 -10 36 -10 55 0 57 55 97 88 64z m382 -20 c0 -43 -18 -108 -30 -108
-5 0 -17 15 -27 33 l-18 32 -3 -38 c-5 -65 -27 -38 -27 33 0 73 16 88 42 41
22 -38 33 -39 33 -3 0 16 3 32 7 35 14 15 23 5 23 -25z m120 12 c0 -5 -13 -11
-30 -15 -34 -7 -41 -26 -9 -22 31 3 35 -19 4 -27 -14 -4 -25 -13 -25 -21 0
-18 5 -18 30 -5 13 7 21 7 26 -1 9 -16 -15 -29 -53 -29 -24 0 -33 5 -34 18 -8
102 -8 102 14 107 65 13 77 13 77 -5z m91 10 c21 -12 25 -50 7 -68 -9 -9 -8
-16 5 -30 33 -37 8 -46 -29 -11 l-23 22 -7 -27 c-11 -45 -38 -17 -35 37 1 19
8 74 10 82 2 9 52 5 72 -5z m-776 -20 c3 -11 11 -20 16 -20 5 0 14 9 21 20 7
11 18 20 25 20 18 0 16 -7 -6 -39 -11 -15 -21 -42 -23 -61 -4 -41 -22 -43 -26
-3 -2 15 -9 35 -16 43 -17 20 -26 47 -19 54 12 11 22 6 28 -14z m252 0 c5 -17
7 -17 20 -5 16 16 43 20 43 7 0 -5 -9 -17 -20 -27 l-20 -18 25 -27 c14 -14 25
-29 25 -33 0 -14 -28 -6 -45 13 -23 26 -33 25 -37 -2 -2 -13 -9 -23 -17 -23
-15 0 -24 72 -9 81 4 3 8 16 8 30 0 29 20 32 27 4z m128 3 c-13 -35 -15 -68
-6 -83 14 -20 24 -7 30 43 4 28 11 42 21 42 15 0 17 -29 5 -82 -11 -48 -68
-52 -86 -6 -12 33 6 103 27 103 11 0 14 -5 9 -17z m485 14 c0 -1 -4 -18 -10
-37 -5 -19 -7 -43 -4 -53 9 -29 34 -1 34 39 0 35 15 53 31 37 14 -14 -6 -94
-26 -109 -23 -17 -55 -5 -66 23 -12 32 6 103 26 103 8 0 15 -1 15 -3z m-780
-333 c92 -31 148 -62 310 -172 187 -127 229 -173 244 -268 l7 -41 -38 -6 c-21
-4 -79 -7 -129 -7 -284 0 -595 116 -843 315 -36 29 -76 63 -88 77 l-23 24 120
47 c67 26 144 51 173 56 75 14 180 3 267 -25z m-970 -163 c0 -11 -77 -81 -89
-81 -30 0 -17 60 17 79 21 13 72 14 72 2z m1140 -692 c0 -14 -7 -19 -30 -19
-36 0 -40 22 -7 37 27 13 37 8 37 -18z"/>
<path d="M1654 1943 c-57 -82 -79 -139 -79 -199 0 -62 23 -100 78 -127 33 -17
147 -40 155 -32 2 2 -13 13 -35 23 -21 11 -55 38 -77 60 -51 54 -55 96 -22
226 14 55 24 101 22 103 -1 2 -21 -23 -42 -54z"/>
<path d="M2043 1833 c-10 -3 -13 -46 -13 -163 0 -155 0 -158 -24 -173 l-23
-16 -5 67 c-7 84 -33 142 -64 142 -34 0 -37 -15 -13 -62 21 -41 29 -128 18
-193 -5 -26 23 -22 73 11 21 13 40 24 43 24 3 0 5 -29 5 -65 l0 -65 31 0 31 0
-7 85 -7 85 44 20 c87 40 169 16 210 -60 l18 -35 -54 -5 c-54 -5 -87 -24 -108
-63 -7 -15 -5 -24 12 -42 45 -48 120 -38 171 22 14 17 35 34 47 37 27 9 28 22
2 29 -11 3 -20 13 -20 24 0 25 -36 82 -74 115 -56 50 -137 59 -209 21 -16 -8
-31 -12 -33 -10 -3 2 -8 66 -11 141 -6 134 -9 142 -40 129z m307 -447 c0 -23
-45 -70 -58 -62 -21 13 -14 56 11 66 33 13 47 12 47 -4z"/>
<path d="M2142 2361 c-13 -11 -31 -16 -46 -14 -27 6 -45 -15 -25 -28 25 -16
67 -9 95 14 16 14 24 29 20 35 -10 16 -19 15 -44 -7z"/>
<path d="M1900 2275 c-7 -8 -34 -15 -63 -17 -38 -2 -52 -7 -52 -18 0 -11 14
-16 56 -18 44 -2 61 1 82 18 15 12 27 28 27 36 0 18 -34 18 -50 -1z"/>
<path d="M2450 2481 c-12 -23 -13 -71 -2 -71 18 0 32 26 32 57 0 37 -14 43
-30 14z"/>
<path d="M3042 2481 c13 -21 38 -17 38 5 0 8 -10 14 -25 14 -22 0 -24 -2 -13
-19z"/>
</g>
</svg>
