<?xml version="1.0" standalone="no"?>
<!DOCTYPE svg PUBLIC "-//W3C//DTD SVG 20010904//EN"
 "http://www.w3.org/TR/2001/REC-SVG-20010904/DTD/svg10.dtd">
<svg version="1.0" xmlns="http://www.w3.org/2000/svg"
 width="318.000000pt" height="300.000000pt" viewBox="0 0 318.000000 300.000000"
 preserveAspectRatio="xMidYMid meet">

<g transform="translate(0.000000,300.000000) scale(0.100000,-0.100000)"
fill="#000000" stroke="none">
<path d="M1370 2933 c-56 -9 -219 -55 -280 -78 -333 -127 -629 -395 -791 -718
-53 -104 -104 -259 -125 -377 -26 -147 -23 -424 6 -560 63 -294 189 -524 409
-740 196 -193 375 -295 666 -377 78 -22 116 -26 286 -30 233 -6 317 3 471 53
241 78 414 182 589 354 157 155 262 307 333 483 165 410 130 912 -89 1282
-225 382 -612 643 -1035 700 -96 13 -380 18 -440 8z m426 -158 c121 -24 251
-84 354 -166 l53 -42 -24 -13 c-38 -21 -58 -17 -106 25 -56 50 -202 126 -284
148 -88 23 -345 23 -444 -1 -260 -62 -486 -213 -638 -427 -80 -113 -91 -147
-84 -264 29 -498 444 -978 1046 -1210 115 -45 294 -91 402 -105 108 -13 381
-13 469 1 38 6 81 9 96 7 l27 -3 -42 -53 c-62 -78 -186 -200 -274 -270 -114
-90 -113 -90 -132 -45 -18 44 -56 86 -103 115 -17 11 -30 23 -27 28 3 4 31 23
63 40 58 33 112 77 112 92 0 5 -17 16 -37 25 -28 13 -70 17 -165 17 -130 1
-157 -6 -145 -38 5 -13 25 -16 106 -16 56 0 103 -4 106 -10 3 -6 -8 -18 -25
-28 -77 -42 -120 -73 -120 -85 0 -7 29 -35 65 -61 90 -66 114 -115 76 -150
-19 -18 -20 -17 -35 18 -13 32 -19 36 -53 38 -93 3 -132 -12 -159 -63 -19 -37
-18 -45 7 -70 28 -28 17 -34 -90 -50 -111 -15 -311 -6 -416 20 -409 100 -760
372 -944 731 -29 56 -51 103 -49 105 1 1 21 12 43 23 22 11 66 43 97 72 l57
51 52 -41 c54 -43 81 -48 87 -16 4 21 -28 58 -77 88 l-34 21 7 76 c9 118 12
124 55 118 20 -3 45 -9 56 -12 11 -3 29 1 40 10 l20 15 -20 15 c-11 9 -31 18
-45 21 -114 26 -114 26 -131 172 -13 109 -21 132 -49 132 -32 0 -37 -28 -27
-140 5 -58 10 -163 10 -235 l2 -130 -70 -6 c-38 -3 -83 -12 -98 -19 -24 -12
-30 -12 -37 0 -15 24 -25 139 -23 255 3 228 76 405 324 794 236 369 738 581
1175 496z m485 -321 l52 -66 85 8 c99 8 98 11 32 -86 l-40 -59 29 -73 c16 -40
27 -76 25 -80 -4 -5 -70 8 -140 27 -14 5 -33 -4 -64 -30 -53 -44 -77 -58 -90
-50 -6 3 -10 39 -10 78 l0 72 -70 44 c-38 23 -72 46 -75 51 -3 4 29 20 71 36
80 29 94 44 109 114 9 42 23 80 29 80 2 0 28 -30 57 -66z m-1061 4 c75 -38 69
-69 -41 -213 -122 -161 -149 -224 -116 -269 12 -17 16 -17 44 -3 16 9 76 68
132 131 89 101 110 120 175 151 126 63 234 59 296 -11 54 -62 36 -101 -70
-150 -92 -44 -149 -84 -181 -131 l-31 -44 66 -69 c73 -75 96 -119 96 -180 0
-93 -45 -143 -154 -171 -42 -11 -146 -47 -231 -79 -85 -33 -164 -60 -176 -60
-13 0 -38 17 -58 38 -51 54 -155 232 -204 348 -37 89 -41 107 -42 184 0 80 3
91 42 172 93 193 207 323 320 364 54 19 83 17 133 -8z m704 -610 c34 -49 9
-162 -38 -174 -36 -9 -54 1 -67 33 -18 46 -5 114 26 140 33 29 60 29 79 1z
m506 -36 c0 -52 -16 -118 -30 -127 -5 -3 -22 13 -37 37 l-28 42 -5 -45 c-8
-69 -25 -47 -28 37 -4 110 13 119 65 38 10 -17 13 -17 22 -4 6 8 11 27 11 41
0 14 3 29 6 32 14 14 24 -7 24 -51z m269 47 c37 -13 49 -46 31 -89 -11 -26
-10 -33 4 -49 18 -19 21 -41 7 -41 -5 0 -23 11 -39 25 -17 14 -32 25 -35 25
-3 0 -10 -14 -16 -31 -9 -28 -13 -30 -27 -18 -13 11 -15 28 -12 89 2 42 8 82
12 88 9 15 34 15 75 1z m-109 -14 c0 -8 -14 -18 -32 -23 -39 -10 -49 -32 -14
-32 39 0 39 -16 0 -40 -26 -14 -34 -24 -27 -31 8 -8 18 -7 33 1 17 9 25 9 34
0 16 -16 -19 -40 -60 -40 -46 0 -55 18 -52 97 3 66 4 68 33 74 55 12 85 10 85
-6z m-905 -21 l17 -26 27 26 c23 22 51 34 51 22 0 -2 -11 -23 -24 -47 -13 -24
-27 -59 -31 -76 -10 -48 -23 -49 -35 -3 -6 23 -20 56 -31 73 -10 18 -19 38
-19 45 0 21 27 13 45 -14z m332 6 c6 -24 16 -25 33 -5 12 15 50 21 50 8 0 -4
-12 -20 -27 -35 l-27 -28 32 -33 c52 -53 39 -78 -16 -32 -17 14 -34 25 -40 25
-5 0 -13 -11 -16 -25 -4 -14 -13 -25 -21 -25 -21 0 -29 61 -15 107 7 21 14 44
16 51 5 19 25 14 31 -8z m169 -2 c-16 -55 -18 -89 -6 -103 18 -22 27 -11 40
50 8 38 16 55 27 55 13 0 15 -11 11 -60 -3 -37 -11 -67 -20 -77 -22 -21 -68
-20 -85 3 -15 21 -17 92 -3 128 12 33 45 36 36 4z m644 9 c0 -6 -4 -28 -10
-47 -11 -39 -5 -70 15 -70 16 0 25 22 25 59 0 35 23 67 40 56 15 -9 9 -64 -13
-117 -13 -31 -21 -38 -43 -38 -15 0 -36 7 -46 17 -32 29 -19 153 17 153 8 0
15 -6 15 -13z m-1084 -417 c105 -27 221 -84 373 -184 322 -210 396 -286 416
-428 l7 -46 -67 -7 c-109 -12 -348 1 -459 25 -205 44 -405 121 -581 225 -111
65 -270 183 -338 251 l-49 48 74 28 c139 54 243 90 303 104 75 17 218 10 321
-16z m-1246 -229 c0 -12 -107 -111 -120 -111 -36 0 -9 93 32 110 30 11 88 13
88 1z m1515 -921 c0 -19 -6 -26 -26 -28 -14 -2 -31 4 -38 12 -10 11 -8 17 11
30 31 22 53 16 53 -14z"/>
<path d="M792 1072 c-66 -98 -94 -170 -95 -247 -1 -126 80 -195 253 -212 l55
-5 -55 37 c-154 103 -174 161 -125 365 14 58 27 113 29 123 8 34 -10 16 -62
-61z"/>
<path d="M1307 903 c-4 -21 -7 -116 -7 -211 l0 -173 -27 -25 -28 -26 -12 93
c-15 109 -44 176 -80 185 -44 12 -50 -9 -23 -84 20 -55 25 -85 25 -169 0 -120
4 -124 90 -73 28 16 53 30 57 30 4 0 8 -37 10 -82 l3 -83 44 -3 43 -3 -6 48
c-3 26 -8 78 -11 115 l-6 66 48 22 c117 53 218 30 281 -64 37 -56 32 -66 -30
-66 -53 0 -115 -27 -138 -60 -27 -38 -25 -54 11 -84 65 -55 125 -47 210 29 33
30 69 57 80 60 26 9 24 24 -6 35 -14 5 -25 17 -25 27 0 10 -13 41 -30 69 -72
126 -202 174 -330 124 -28 -11 -55 -18 -60 -15 -4 3 -11 71 -15 152 -9 172
-14 197 -42 201 -16 2 -21 -4 -26 -35z m420 -560 c6 -17 -61 -88 -75 -79 -21
13 -14 64 11 81 24 17 58 16 64 -2z"/>
<path d="M1458 1649 c-15 -11 -46 -23 -68 -27 -47 -8 -54 -21 -21 -38 47 -24
153 30 138 70 -8 21 -16 20 -49 -5z"/>
<path d="M1135 1533 c-16 -9 -57 -22 -90 -28 -41 -7 -60 -16 -60 -26 0 -11 17
-15 72 -17 67 -3 74 -1 104 26 22 19 30 34 26 45 -8 21 -14 21 -52 0z"/>
<path d="M1866 1808 c-21 -29 -22 -98 -1 -98 20 0 35 32 35 74 0 43 -14 53
-34 24z"/>
<path d="M2640 1822 c0 -5 8 -16 18 -25 21 -19 48 -7 39 17 -6 16 -57 23 -57
8z"/>
</g>
</svg>
